<svg width="24" height="24" viewBox="0 0 24 24" fill="none" xmlns="http://www.w3.org/2000/svg">
<path opacity="0.4" d="M12 22.0002C17.5228 22.0002 22 17.5231 22 12.0002C22 6.4774 17.5228 2.00024 12 2.00024C6.47715 2.00024 2 6.4774 2 12.0002C2 17.5231 6.47715 22.0002 12 22.0002Z" fill="white"/>
<path d="M15.7099 15.9303C15.5799 15.9303 15.4499 15.9003 15.3299 15.8203L12.2299 13.9703C11.4599 13.5103 10.8899 12.5003 10.8899 11.6103V7.51025C10.8899 7.10025 11.2299 6.76025 11.6399 6.76025C12.0499 6.76025 12.3899 7.10025 12.3899 7.51025V11.6103C12.3899 11.9703 12.6899 12.5003 12.9999 12.6803L16.0999 14.5303C16.4599 14.7403 16.5699 15.2003 16.3599 15.5603C16.2099 15.8003 15.9599 15.9303 15.7099 15.9303Z" fill="white"/>
</svg>
