<svg width="17" height="17" viewBox="0 0 17 17" fill="none" xmlns="http://www.w3.org/2000/svg">
<path d="M14.158 15.1666H2.15796C1.88463 15.1666 1.65796 14.94 1.65796 14.6666C1.65796 14.3933 1.88463 14.1666 2.15796 14.1666H14.158C14.4313 14.1666 14.658 14.3933 14.658 14.6666C14.658 14.94 14.4313 15.1666 14.158 15.1666Z" fill="white" fill-opacity="0.72"/>
<path d="M12.8378 2.81994C11.5445 1.52661 10.2778 1.49328 8.95118 2.81994L8.14451 3.62661C8.07785 3.69328 8.05118 3.79994 8.07785 3.89328C8.58451 5.65994 9.99785 7.07328 11.7645 7.57994C11.7912 7.58661 11.8178 7.59328 11.8445 7.59328C11.9178 7.59328 11.9845 7.56661 12.0378 7.51328L12.8378 6.70661C13.4978 6.05328 13.8178 5.41994 13.8178 4.77994C13.8245 4.11994 13.5045 3.47994 12.8378 2.81994Z" fill="white" fill-opacity="0.72"/>
<path d="M10.5645 8.18666C10.3712 8.09332 10.1845 7.99999 10.0045 7.89333C9.85785 7.80666 9.71785 7.71333 9.57785 7.61333C9.46451 7.53999 9.33118 7.43333 9.20451 7.32666C9.19118 7.31999 9.14451 7.27999 9.09118 7.22666C8.87118 7.03999 8.62451 6.79999 8.40451 6.53333C8.38451 6.51999 8.35118 6.47333 8.30451 6.41333C8.23785 6.33333 8.12451 6.19999 8.02451 6.04666C7.94451 5.94666 7.85118 5.79999 7.76451 5.65333C7.65785 5.47333 7.56451 5.29333 7.47118 5.10666C7.34881 4.84443 7.00464 4.76653 6.80002 4.97115L3.05118 8.71999C2.96451 8.80666 2.88451 8.97333 2.86451 9.08666L2.50451 11.64C2.43785 12.0933 2.56451 12.52 2.84451 12.8067C3.08451 13.04 3.41785 13.1667 3.77785 13.1667C3.85785 13.1667 3.93785 13.16 4.01785 13.1467L6.57785 12.7867C6.69785 12.7667 6.86451 12.6867 6.94451 12.6L10.6995 8.84497C10.9001 8.64444 10.8247 8.29942 10.5645 8.18666Z" fill="white" fill-opacity="0.72"/>
</svg>
