<svg width="24" height="24" viewBox="0 0 24 24" fill="none" xmlns="http://www.w3.org/2000/svg">
<path opacity="0.4" d="M2.75006 18.6502C2.34006 18.6502 2.00006 18.3102 2.00006 17.9002V12.2002C1.95006 9.49017 2.96006 6.93017 4.84006 5.01017C6.72006 3.10017 9.24006 2.05017 11.9501 2.05017C17.4901 2.05017 22.0001 6.56017 22.0001 12.1002V17.8002C22.0001 18.2102 21.6601 18.5502 21.2501 18.5502C20.8401 18.5502 20.5001 18.2102 20.5001 17.8002V12.1002C20.5001 7.39017 16.6701 3.55017 11.9501 3.55017C9.64006 3.55017 7.50006 4.44017 5.91006 6.06017C4.31006 7.69017 3.46006 9.86017 3.50006 12.1802V17.8902C3.50006 18.3102 3.17006 18.6502 2.75006 18.6502Z" fill="white"/>
<path d="M5.94 12.4501H5.81C3.71 12.4501 2 14.1601 2 16.2601V18.1401C2 20.2401 3.71 21.9501 5.81 21.9501H5.94C8.04 21.9501 9.75 20.2401 9.75 18.1401V16.2601C9.75 14.1601 8.04 12.4501 5.94 12.4501Z" fill="white"/>
<path d="M18.19 12.4501H18.06C15.96 12.4501 14.25 14.1601 14.25 16.2601V18.1401C14.25 20.2401 15.96 21.9501 18.06 21.9501H18.19C20.29 21.9501 22 20.2401 22 18.1401V16.2601C22 14.1601 20.29 12.4501 18.19 12.4501Z" fill="white"/>
</svg>
