<svg width="17" height="17" viewBox="0 0 17 17" fill="none" xmlns="http://www.w3.org/2000/svg">
<path d="M14.2046 3.98671C13.1312 3.88004 12.0579 3.80004 10.9779 3.74004V3.73337L10.8312 2.86671C10.7312 2.25337 10.5846 1.33337 9.02457 1.33337H7.2779C5.72457 1.33337 5.5779 2.21337 5.47123 2.86004L5.33123 3.71337C4.71123 3.75337 4.09123 3.79337 3.47123 3.85337L2.11123 3.98671C1.83123 4.01337 1.63123 4.26004 1.6579 4.53337C1.68457 4.80671 1.92457 5.00671 2.20457 4.98004L3.56457 4.84671C7.0579 4.50004 10.5779 4.63337 14.1112 4.98671C14.1312 4.98671 14.1446 4.98671 14.1646 4.98671C14.4179 4.98671 14.6379 4.79337 14.6646 4.53337C14.6846 4.26004 14.4846 4.01337 14.2046 3.98671Z" fill="white" fill-opacity="0.72"/>
<path d="M12.9779 5.92663C12.8179 5.75996 12.5979 5.66663 12.3712 5.66663H3.94454C3.71787 5.66663 3.49121 5.75996 3.33787 5.92663C3.18454 6.09329 3.09787 6.31996 3.11121 6.55329L3.52454 13.3933C3.59787 14.4066 3.69121 15.6733 6.01787 15.6733H10.2979C12.6245 15.6733 12.7179 14.4133 12.7912 13.3933L13.2045 6.55996C13.2179 6.31996 13.1312 6.09329 12.9779 5.92663ZM9.26454 12.3333H7.04454C6.77121 12.3333 6.54454 12.1066 6.54454 11.8333C6.54454 11.56 6.77121 11.3333 7.04454 11.3333H9.26454C9.53787 11.3333 9.76454 11.56 9.76454 11.8333C9.76454 12.1066 9.53787 12.3333 9.26454 12.3333ZM9.82454 9.66663H6.49121C6.21787 9.66663 5.99121 9.43996 5.99121 9.16663C5.99121 8.89329 6.21787 8.66663 6.49121 8.66663H9.82454C10.0979 8.66663 10.3245 8.89329 10.3245 9.16663C10.3245 9.43996 10.0979 9.66663 9.82454 9.66663Z" fill="white" fill-opacity="0.72"/>
</svg>
